/* XPM */
static char *_520295199233[] = {
/* columns rows colors chars-per-pixel */
"100 100 5 1 ",
"  c black",
". c #010101",
"X c #020202",
"o c #FEFEFE",
"O c white",
/* pixels */
"                                 . . . . .                .   .                                     ",
"                                . .       .  .           .     .                                    ",
"                                 .             .                                                    ",
"                                .     .       X                                                     ",
"                                    .   .      .                                                    ",
"                                .            .                                                      ",
"                                   .  .  OoOoOOOOOOOOOOOoOOO.                                       ",
"                                .      OOO  .           . .oOOO                                     ",
"                                  .   OO                  .   OOO      .                            ",
"                                   .OO    . .      .        . . Oo                                  ",
"                                  .oO  ..                    . . OO .                               ",
"                                  Oo.    . .        .      .      OO .                              ",
"                                 .O       .  .     .  .    . .     OO  .                            ",
"                                 OO         .oOOOOO       . .   .   O .                             ",
"                                OO . . .  OOOO  . O        .      . OO                              ",
"                                O .      OOO     .O          . .     O                              ",
"                               OO      .OO . .  OO   .                O                             ",
"                               O .  .   O .  OOO . .             .    O.                            ",
"                               O       .OOOOOO  . .                .  oO                            ",
"                               O   .      .         .               X  O                            ",
"                               O .     . .        . .             .    O                            ",
"                               O      .    .       . .             .   O                            ",
"                               O     . .       .    .             .    O                            ",
"                               O. . . .         . .                  . O                            ",
"                          .    O                                     . O                            ",
"                               O  .                                    O                            ",
"                            . .o                                 .    .O                            ",
"                           ..  O                                      oO                            ",
"                         .   . O X  .                              .  O                             ",
"                          .   . O ..                              .   O                             ",
"                         .      O    .                             . Oo                             ",
"                              . O                                 .  o                              ",
"                        .    . OO  .                             . .oO                              ",
"                              .OO                               .   O                               ",
"                        .  . .  OOo                               .OO                               ",
"                          .   .   OO  .                          .oO                                ",
"                         . ..    . OO                             O                                 ",
"                          .    ..   o.                          .o                                  ",
"                                 .   O                          OO                                  ",
"                                     O                          O                                   ",
"                                  .  OO   .. OoO           .    O .    .                            ",
"                                   .. O      O OO.  .OoOOoO   .OO.                                  ",
"                                     .o.    Oo. OOOOO .OO O  . O  . .  .                            ",
"                                   . .O .  .o. OO OO   OO O   OO .   .                              ",
"                                .     O.    O OOO.oOO.O O O   O.   .. .                             ",
"                                 .   .o   . o.O o O O OOOoO   O .    .                              ",
"                                      O    .O OOO O O oO O . oO                                     ",
"                                  . . O     O OO .oOO OOO.   O                                      ",
"                                    . O     O  O.      .o    O                                      ",
"                                     .OO    O .     .  OO . .O                                      ",
"                                       O    O  .       O   . o                                      ",
"                                   . . o  . O .        O .  .O                                      ",
"                                    .  OO   OO        .oO    O                                      ",
"                                        O    O .       .o   OO                                      ",
"                                        O .  O       .  O   O                                       ",
"                                        OO . oO.        O . O                                       ",
"                                         OO   O .  .      Oo. .                                     ",
"                                          OO        . OOOOO.                                        ",
"                                         . OOOOOOOoOOOO Oo.  .                                      ",
"                                           O      .     OO     .                                    ",
"                                          .OOOO  . .    OO    .                                     ",
"                                        .. O  OOooOOOOOOOO                                          ",
"                                           OOO .        Oo.    .                                    ",
"                                           OOoOOOO     OO                                           ",
"                                           OO    oOoOoOOO                                           ",
"                                            O      . .  O  .                                        ",
"                                            OO          O                                           ",
"                                         . .O OOoOOOOOOOO .                                         ",
"                                            O   .      OO.    .                                     ",
"                                            OOO  ..   oOOO                                          ",
"                                            oOOOOoOoOOOOOO                                          ",
"                                            OOOOOOOOOOOOO                                           ",
"                                             OOOOOOOOOOO                                            ",
"                                            X     OOOO                                              ",
"                                         .   .                                                      ",
"                                             .                                                      ",
"                                            .                                                       ",
"                                              .                                                     ",
"                                                 .    .                                             ",
"                                                                                                    ",
".   .oO             . .     .   OO     o. . . OO     . .     .   .               . . .         oO   ",
" .   O           O .         OOOO.     O . . .o.    . .  . OO .    .   OOOO  .  OOOOOo   OOoOOoO    ",
".  . O .         O       .OOO . .      o      O  OOoOOOOOoO       . . OO .oOO   O    .   O.   .     ",
"  .  O           O  .   oOO. .        OO      o.   .   O  .   .       O     Oo. O  .     O . .      ",
"   . O           o.  . OO..         . O       O        O        .   .OO   .  O  O .     .O         .",
"     O           O    OO   X      .   o       O        O             O  .    o  O        O          ",
"  . OO           O   Oo   .  .        O .     O      . O   .  .    . O   .   O .O        o   .      ",
" .  O .          O   o        .       O  . OOoO       O              O       O  O    .   OoOOOOO    ",
"    O            O   O    .  OO      OOOOOOo  O       O          .  .O       o  O. OO    O          ",
"   .o      . .   O.  oO  .  .oOOOoO  OO.      o      .O         .  . O     . O  OOOO . . O          ",
"    O     . .  . O    OOo .  .    oO O        O     . O           .  O .  . .O  o.       O          ",
".   O     .  O   OO   . OoO . .  OO  O       .o  .   .O         .   .O     .O   O .      O          ",
" .  OOOOOOoOOO    o.      OOO.  OO  OO   .  . OO. .   O          .   O.    oo.  O.       O          ",
"   .              O  .      OOOOO   O      .  oO .  . O            .  O   OO    O  .     O          ",
"                  O.              . O    .. . O      OO               oOOOO   . O    .   O          ",
"                         .                        . .OO            .   OO       O        O          ",
"                                                    . O                         O                   ",
"                                                                                                    ",
"                                                     .                                              ",
"                                                                                    .               "
};
