/* XPM */
static char *_520332824148[] = {
/* columns rows colors chars-per-pixel */
"100 100 15 1 ",
"  c black",
". c #010101",
"X c #020202",
"o c #060606",
"O c gray5",
"+ c gray37",
"@ c #626262",
"# c gray63",
"$ c #B7B7B7",
"% c #CACACA",
"& c gray94",
"* c #F3F3F3",
"= c #FDFDFD",
"- c #FEFEFE",
"; c white",
/* pixels */
"                                                                                                    ",
"                                                                                                    ",
"                                                                                                    ",
"                                                                                                    ",
"                                                                                                    ",
"                                                                                                    ",
"                                                                                                    ",
"                                                                                                    ",
"                                                                                                    ",
"                                         .    .                                                     ",
"                                          ;  ;                                                      ",
"                                          ;  ;                                                      ",
"                                         .    .                                                     ",
"                                           ..                                                       ",
"                                          .  .                                                      ",
"                                         .;;;;.                                                     ",
"                                          ;  ;                                                      ",
"                                                                                                    ",
"                                                                                                    ",
"                                                                                                    ",
"                                          .  .                                                      ",
"                                                                                                    ",
"                                                                                                    ",
"                                                                                                    ",
"                                                                 .   .           . .                ",
"                                                                      .       .   .                 ",
"                                                                     .   . .      .    .            ",
"                                                                .  .      .  .  .                   ",
"                                                                    .       X     . .               ",
"                                                                 .   .  .       .;-.  .             ",
"                                                                . .    .     -;;;;;  .              ",
"                                                                 ;-;;;;-;;;;;;.  ;-                 ",
"                                                        . . .   ;;.              ;                  ",
"                                                               ;;.       . .   .;;    .             ",
"                                                           .  .-  .;-  .    .  ;;      .            ",
"                                                         .    ;;   ;;-;-;;;;--;   .                 ",
"                                                              ;   ;;       .. ; .  .                ",
"                                                              ;   -  .       .;   .  . .            ",
"                                                           . .;;;-;;;;-   ;;; ;     . .             ",
"                                                            ;;;;   ;  ;  ;; ;;;                     ",
"                                                            ;  .   ; ;;;;; ; ;-                     ",
"                                                         .  ;      -;.-. -  ;-;                     ",
"                                                            ; .    .;;;  ;;;- -.                    ",
"                                                         .  .;;;           .  ;                     ",
"                                                          .   .;     .        ;                     ",
"                                                        .      ; .    ;;-;;;  -                     ",
"                                                              .-;     ;   ;-  ;.                    ",
"                                                             .  ; . . ;;-;;   ;                     ",
"                                                                 ;      .    ;;       .             ",
"                                                        . .  . ;;;;    .    ;;  .  .                ",
"                                                          . .-;;  ;;      ;;;;;-    .  .            ",
"                                                         .  -;     ;;;;;;;;  X ;;; .  .             ",
"                                                           .;   .     .;   .    .;;. .              ",
"                                                           ;;   ;;-;  ;;;   -     ;;                ",
"                                                           ;   ;;; ;- -;; .;;-;;   ;.               ",
"                                                         .;;   -;-  ; ;;;.;; ;; ;;  - .             ",
"                                                          ;.  ; ;  .;;;;;;;   ;  ;  ;               ",
"                                                         ;;   ; - .  ;;;;; .  ;  ;; --.             ",
"                                                         ;.  ;- ;   .-;;;;  . ;   -  ;              ",
"                                                         ; . ;. ; .  ;;-;     ; . ;  -              ",
"                                                         -. ;-. ;   . ;;-     ;   ; . ;             ",
"                                                         ;  ;.  ;  .  ;;;     -  .-   ;             ",
"                                                        %;;;; . ;     ;;;.    ;.  ;  .-             ",
"                                                        $   ;   ;             ;   ;;;-;             ",
"                                                        #; ;;   ;  .  .  .  . ;    ;  -             ",
"                                                         ;-;    ;       . .   ;.   ;;;;             ",
"                                                             .  ;             ;      .              ",
"                                                                ;    .        ; . .   .             ",
"                                                        .       -    .      . ;.     .              ",
"                                                           .    ;-;;;;;;;-;;-;;  .    .             ",
"                                                          . .     ;  ;   .;  ; .   . .              ",
"                                                           .     ;;.-;    ;; ;;                     ",
"                                                           .     ; .-      -; ;     .               ",
"                                                        . .     @;.-;      ;; ;&o                   ",
"                                                         .     .%  ;.       ;  ;                    ",
"                                                         . .   #;. ;     . .;; ;*                   ",
"                                                               ;  ;;  .   .  ;  ; ..  .             ",
"                                                        . .    ;  ; .    X . ;; -.                  ",
"                                                         .   . ;  ;.  .    .  ; ;-.                 ",
"                                                               ;  ;           ;  ;                  ",
"          .  ;;;;;;;-;;;;;;;;;;;;;;;;;;;;;;;;;;;;;;-;;;;;;;;;;;;  ;-;;;;;;;;;;-  ;;;;;; ..          ",
"            .    .        .    .                 .       .     ;  ;.      .   ;  -  .   .           ",
"  .    . .   .    .   .    .                      .  .      +;;;;;;   . .    O;;;;;;      .   .     ",
" . ..        .  .      .  .         . .         .   .        ;.  ;;    .      ;    ;     .          ",
"  .   . .   .       .      .     .   .   .       .         . ;;;;-      .     ;;;;;; . .    .       ",
".  . .        . . .           .       .       .             .            .  . ;; .  .  ;;-;  ;;-;;  ",
"      .;;;;;-;-;   ..    ;  .    ;;;        .   .      .       . .      .  .;;;;;.   -;;;.  ;  .    ",
".    . ;         .;  .   ; . .;;;- ;;.  .;;;-.    . ;;; ;       . . . .   ;;    ;    ;      ;       ",
".    . ;.         ;   .  ;    ;;    ;;   ;  ;;;   ;;;.- ;         ;   .  ;;    . ;  -       ;      .",
"      .; .        -;     ;    ;  .  .-   -.   ;  ;;   ;; ;    .  ;;   .  ;    .  ;. ;       ;       ",
".  . .  -;-       .;- .  -.   ;;   . ;   ;   .;; ;   . ; ;   . ..-.    . -   . . ;  ;;;;;;; ;;;;;   ",
"  .   .   ;;;-.    ;;;;;;;   .;;  .  ;   .;.  .- ;.  ..; ;;.    -;   .   ;  .   ;   ;;      ;       ",
" . ..    .   ;   . ;   . - .. -; .   ;    ;  . ; ;  .  ; .-  ;  ;      .  -     ;   ; .     ;     . ",
"  .    .  .  ;     ;     ;    ;;;-;-;;;   ;   ;; ;.  . ;  ; ;;; ;   .     ;;  . ;   ;    .  ;       ",
"         X  ;;     ; .  .;   .=;     ;;   ;   ;  ; .   ;  - - -;-.    .     -;-;;.  ;. .    ;       ",
"        ;;;;;      -. .  ;    ;-..  .;;   ; ;;.. ;  . ;   ;-; ;;                    ;       ;       ",
"        ;;;        ;           ;    . ;   ;;;    ;;  ;;   ;;  ;;                            ;       ",
"                                                  ;;; .    ;                                        ",
"            .      .                 .    .                                                 .       ",
"             .      .      .                                                               .        "
};
