/* XPM */
static char *_520332820199[] = {
/* columns rows colors chars-per-pixel */
"100 100 6 1 ",
"  c black",
". c #010101",
"X c #020202",
"o c #FDFDFD",
"O c #FEFEFE",
"+ c white",
/* pixels */
"                                                                                                    ",
"                                                                                                    ",
"                                                                                                    ",
"                                                                                                    ",
"                                                                                                    ",
"                                                                                                    ",
"                                                                                                    ",
"                                                                                                    ",
"                                                                                                    ",
"                                                                                                    ",
"                                                                                                    ",
"                                                                                                    ",
"                                                                                                    ",
"                                                                                                    ",
"                                                                                                    ",
"                                                                                                    ",
"                                                                                                    ",
"                                                                                                    ",
"                                                                                                    ",
"                                                                                                    ",
"                                                                                                    ",
"                                                                                                    ",
"                                                                                                    ",
"                                                                                                    ",
"                                                                     .           .    .             ",
"                                                                      .    .  .                     ",
"                                                                 .  .        .    . ..              ",
"                                                                   .          .       .             ",
"                                                                   .    .            .              ",
"                                                                 .       .   .++++    .             ",
"                                                                  . .   .   +++  ++ ..              ",
"                                                                  +++O+++++++    O+                 ",
"                                                              . +++          .  ++ .                ",
"                                                         .     +O.   .      ..  +                   ",
"                                                            .  O          ..  .++                   ",
"                                                              ++   +++++++O+++++     .              ",
"                                                          .   +   ++   .     .O.  . .               ",
"                                                         .  . O. ++         . + .  .                ",
"                                                              + ++ .+O+   +++ +. . .                ",
"                                                             +O+   OO ++ .+ O++      .              ",
"                                                            ++.    + +++++++ ++                     ",
"                                                            +  .   O+ +  +++O++                     ",
"                                                           .+ .     O++    O+ +                     ",
"                                                            ++O.    X     .  .+                     ",
"                                                          .   ++. .      .    +.                    ",
"                                                               +     .+++O++  +                     ",
"                                                           .    O.    +   +  +O                     ",
"                                                         .      +O    +++++  +.                     ",
"                                                         .       ++         ++    .                 ",
"                                                          . .   O+++ .     O+O                      ",
"                                                         .    +++  ++ .  +O+.+++                    ",
"                                                        .    ++     ++O+++.   XOO  . .              ",
"                                                          . ++ . .     ++      .+     .             ",
"                                                            +      O+  O+ +O+    ++                 ",
"                                                          .+       ++  O+ + +O++  ++ . .            ",
"                                                          ++    ++++O+O+++O  ++++  ++               ",
"                                                 . . . .  +    ++++ .+O  +    + ++  ++              ",
"                                                . .      +O.. + ++ . +.  +.   O..O   O              ",
"                                                 .       + . +O +    +O.++    +  .+  +o             ",
"                                                .     .  +   O. +     + +  .  + . +  .+             ",
"                                                    .    O  ++ .+   . + +    .+   +.. +             ",
"                                                .       +   +   + .   + +    .O.. +  .O             ",
"                                                   .  . +O+++   +  .  +++.  . +  .+++ +             ",
"                                                .      ++ ++    O             +   +  ++             ",
"                                                        +  +    +    .    .   +   ++  +             ",
"                                                        ++++    O     .    .  +    +++O.            ",
"                                                                +    .     .  +  .  . .             ",
"                                                           .    +.     .  .   +                     ",
"                                                        .       +        .   ++    .                ",
"                                                         .      +++++++++O++++    .                 ",
"                                                           .     ++   +  . + +   .    .             ",
"                                                          . .    +   ++    + ++..    .              ",
"                                                                 +  ++     ++ +                     ",
"                                                             .  ++  +  .    + ++  .                 ",
"                                                                + .++       ++.+                    ",
"                                                                +  O.  ..  . +.++    .              ",
"                                                           .  X + ++      .  +  +  .                ",
"                                                            .. ++ +      . . +  +O.  .              ",
"                                                          .    +  + .        +   +                  ",
"                                                               +  +          ++. +                  ",
"         .   ++++++O+O+++O+++O+++++++++++++O+O++++++++++++++++++  +++++++++++O+  ++++++.. .         ",
"         .        .          . .    . .   .                    + .+           O  O..  .     .       ",
"        . .   .    . .   .    . . .  .     . .   X .        .O+++++     .     ++++++ . .   . .      ",
"            .       .              . .      .     X .      . +.   +           +    +. .   . .       ",
"         .         .  ..   .      .        .  ..   .     .   ++++++  .    .   +O+O+O        .       ",
"             .   .    .             .    .    .     .  .   .      .      .              . .         ",
"        +++++O. . .    . .  . .      .  . .    .          .   .     .     .            . . .        ",
"        +    .   +   .. + .    .+++++    +   .. .  +++.           ++     .           .  ++   .      ",
"        ++       +      ++     O+   O+.  +++     +O O+ ++        .O   .    +++++    +O+++   +O+++   ",
"         +++   ..+  . .  + .  .+ .  .+  ++ .++  +O  .++ +        ++       +O  .++  ++       O       ",
"         . +++   ++      +.  . +   . +  ++ . O  O  .  + ++       +  ...   +    .+  +       .+       ",
"            .+ .. + .    O+   ++ .   +  +O   +  + . . +O +  +O.  +      . +   . +  +        + . .   ",
"             +.   +++O++++.   +O+O+++++.++ . +. + .  . + ++ ++  +    .    +  X  +   + +++O++++O++   ",
"            ++    +      +  . ++     +  +O  .+ .+      +  + +++ +. .   .  +    +O. .+O   .  O+      ",
"           .+     +  .   +   .O+    + . ++ +O+  O  . . +  + + ++  .   .   + . .O.   +       +       ",
"           ++.        .  +  . ++    O    +++    ++. .  +   ++ ++     .    +   ++    +       +       ",
"         +++                . +          + .     +     +   +   +          ++ ++     +       +       ",
"         O                                        +++ ++   O               ++       +       +       ",
"             .               .            .         ++                                              ",
"            .                                                                                       "
};
